<svg width="24" height="21" viewBox="0 0 24 21" fill="none" xmlns="http://www.w3.org/2000/svg">
<path d="M23.9629 14.7593L22.7915 4.99437C22.4765 2.3653 20.2417 0.382019 17.5933 0.382019H6.40558C3.75725 0.382019 1.52245 2.3653 1.20733 4.99437L0.0371751 14.7593C-0.140839 16.2446 0.325967 17.7383 1.31932 18.8572C2.31146 19.9768 3.73912 20.618 5.23543 20.618H18.7647C20.2597 20.618 21.6875 19.9768 22.6808 18.8572C23.6728 17.7386 24.141 16.2449 23.9629 14.7593ZM20.7541 17.1601C20.2224 17.7592 19.4888 18.0887 18.6892 18.0887H5.31127C4.51041 18.0887 3.77648 17.7592 3.24629 17.1601C2.71458 16.5612 2.4754 15.794 2.57018 14.9989L3.72717 5.34342C3.89334 3.95792 5.07169 2.91136 6.46826 2.91136H17.531C18.9271 2.91136 20.1059 3.95761 20.2719 5.34342L21.4302 14.9989C21.525 15.794 21.2842 16.5612 20.7541 17.1601Z" fill="#2667FF"/>
<path d="M18.7216 11.7619C18.5374 11.4796 18.2545 11.2859 17.9247 11.2165C17.5943 11.147 17.2578 11.2103 16.9754 11.3942C13.6069 13.591 10.3287 13.5907 6.95385 11.3939C6.67144 11.21 6.33404 11.1467 6.00454 11.2168C5.67474 11.2865 5.39213 11.4805 5.20824 11.7628C5.02435 12.0452 4.96137 12.3823 5.03114 12.7121C5.1008 13.0419 5.29482 13.3245 5.57713 13.5084C7.68616 14.8814 9.8362 15.5773 11.9675 15.5773C14.0992 15.5773 16.2476 14.8811 18.3536 13.5078C18.6359 13.3236 18.8296 13.0407 18.899 12.7109C18.9688 12.3814 18.9058 12.0443 18.7216 11.7619Z" fill="#2667FF"/>
</svg>
