<svg width="77" height="33" viewBox="0 0 77 33" fill="none" xmlns="http://www.w3.org/2000/svg">
<g clip-path="url(#clip0_98_2779)">
<path d="M76.389 23.2356L74.5405 7.80604C74.0434 3.65185 70.5167 0.518066 66.3374 0.518066H48.6823C44.503 0.518066 40.9764 3.65185 40.4791 7.80604L38.6325 23.2356C38.3516 25.5825 39.0882 27.9428 40.6558 29.7106C42.2215 31.4797 44.4744 32.4929 46.8357 32.4929H68.1859C70.5451 32.4929 72.7983 31.4797 74.3658 29.7106C75.9314 27.9433 76.6701 25.5829 76.389 23.2356ZM71.3254 27.0292C70.4863 27.9757 69.3286 28.4964 68.0667 28.4964H46.9554C45.6916 28.4964 44.5334 27.9757 43.6967 27.0292C42.8576 26.0828 42.4802 24.8705 42.6298 23.6141L44.4556 8.35758C44.7178 6.16835 46.5773 4.51468 48.7812 4.51468H66.239C68.4422 4.51468 70.3024 6.16785 70.5645 8.35758L72.3922 23.6141C72.5419 24.8705 72.162 26.0828 71.3254 27.0292Z" fill="#102B6B"/>
<path d="M68.1178 18.4995C67.8271 18.0534 67.3807 17.7473 66.8602 17.6377C66.3388 17.5279 65.8078 17.6279 65.3621 17.9185C60.0464 21.3897 54.8732 21.3892 49.5474 17.918C49.1017 17.6275 48.5693 17.5275 48.0493 17.6382C47.5289 17.7483 47.0829 18.0548 46.7927 18.5009C46.5025 18.9471 46.4031 19.4798 46.5132 20.0009C46.6231 20.522 46.9293 20.9686 47.3748 21.2591C50.703 23.4286 54.0959 24.5283 57.4593 24.5283C60.8233 24.5283 64.2137 23.4281 67.5371 21.2582C67.9826 20.9671 68.2881 20.5201 68.3978 19.999C68.5079 19.4783 68.4085 18.9457 68.1178 18.4995Z" fill="#102B6B"/>
<path d="M31.9034 10.1698L30.0147 10.8214C30.2209 11.4889 30.4748 12.4422 30.4748 12.9981C30.4748 13.6018 30.0938 13.9673 29.3639 13.9673C28.6181 13.9673 28.1739 13.7923 28.1739 12.8071V11.1071H26.1744V12.8071C26.1744 13.7923 25.7302 13.9673 24.9365 13.9673C24.1587 13.9673 23.7147 13.7923 23.7147 12.8071V11.1071H21.6992V12.7912C21.6992 13.7923 21.1594 13.9668 20.0012 13.9668C18.8112 13.9668 18.3984 13.7285 18.3984 12.4253V5.13293H16.2878V12.5374C16.2878 13.7449 15.875 13.9673 14.6855 13.9673H14.685C13.7485 13.9673 13.1938 13.7773 13.1938 12.5853V7.11866H11.2096V8.24785C7.44837 9.02513 6.10001 10.5986 6.10001 12.5693C6.10001 14.4434 7.33733 15.6518 9.14626 15.6518C10.4961 15.6518 11.1772 14.9683 11.4795 14.0465C11.7493 15.6833 12.6999 16.6356 14.5551 16.6365L14.558 16.637C15.9706 16.637 16.7637 16.0013 17.0969 15.0321C17.5097 16.1125 18.4457 16.637 19.8738 16.637C21.1907 16.637 22.0477 16.1604 22.3807 15.1752C22.7139 16.1763 23.5076 16.637 24.6343 16.637C25.7612 16.637 26.5389 16.1604 26.8559 15.1593C27.1891 16.1604 27.9988 16.637 29.2998 16.637C31.2675 16.637 32.4735 15.3497 32.4735 13.014C32.4745 12.156 32.2364 10.9799 31.9034 10.1698ZM11.2101 12.521C10.8934 12.7752 10.2894 12.9666 9.40067 12.9666C8.59108 12.9666 7.78244 12.7448 7.78244 12.2039C7.78244 11.6151 8.62295 11.0278 11.2096 10.5986V12.521H11.2101Z" fill="#102B6B"/>
<path d="M12.2808 6.62564C12.9248 6.62564 13.4549 6.15772 13.4549 5.50031C13.4549 4.80521 12.8993 4.375 12.2808 4.375C11.6368 4.375 11.0937 4.81729 11.0937 5.50031C11.0937 6.19591 11.6745 6.62564 12.2808 6.62564Z" fill="#102B6B"/>
<path d="M9.62709 6.62564C10.2711 6.62564 10.8012 6.15772 10.8012 5.50031C10.8012 4.80521 10.2455 4.375 9.62709 4.375C8.98308 4.375 8.43997 4.81729 8.43997 5.50031C8.43997 6.19591 9.02073 6.62564 9.62709 6.62564Z" fill="#102B6B"/>
<path d="M0.414001 28.0133L0.72635 26.3143C1.33705 26.7493 2.42326 27.1433 3.33232 27.1433C4.11971 27.1433 4.58123 26.8852 4.58123 26.4501C4.58123 25.2677 0.482071 26.3684 0.482071 23.501C0.482071 22.006 1.71746 21.0276 3.71273 21.0276C4.78495 21.0276 5.77606 21.3268 6.48186 21.6937L6.14249 23.3517C5.47723 22.9983 4.63578 22.6721 3.82135 22.6721C3.075 22.6721 2.61348 22.9572 2.61348 23.3652C2.61348 24.6021 6.71262 23.5421 6.71262 26.2191C6.71262 27.6871 5.31454 28.7196 3.25121 28.7196C2.01581 28.7201 1.0247 28.3532 0.414001 28.0133Z" fill="#102B6B"/>
<path d="M13.5799 21.2722H15.7244V28.5161H13.5799V27.3202C12.9963 28.1898 12.1683 28.693 11.0961 28.693C9.27705 28.693 7.52606 27.402 7.52606 24.8874C7.52606 22.3729 9.19546 21.0546 11.0961 21.0546C12.1548 21.0546 12.9827 21.4485 13.5799 22.237V21.2722ZM13.5799 24.8604C13.1865 23.5146 12.3991 22.8354 11.5031 22.8354C10.5395 22.8354 9.79263 23.5556 9.79263 24.8604C9.79263 26.1514 10.5525 26.9127 11.5166 26.9127C12.4536 26.9122 13.227 26.0833 13.5799 24.8604Z" fill="#102B6B"/>
<path d="M17.2992 28.516V18.9615H19.4436V28.516H17.2992Z" fill="#102B6B"/>
<path d="M21.0184 28.516V18.9615H23.1629V28.516H21.0184Z" fill="#102B6B"/>
<path d="M30.438 21.2722H32.5825V28.5161H30.438V27.3202C29.8544 28.1898 29.0264 28.693 27.9542 28.693C26.1352 28.693 24.3842 27.402 24.3842 24.8874C24.3842 22.3729 26.0536 21.0546 27.9542 21.0546C29.013 21.0546 29.8409 21.4485 30.438 22.237V21.2722ZM30.438 24.8604C30.0446 23.5146 29.2573 22.8354 28.3612 22.8354C27.3976 22.8354 26.6507 23.5556 26.6507 24.8604C26.6507 26.1514 27.4107 26.9127 28.3747 26.9127C29.3113 26.9122 30.0852 26.0833 30.438 24.8604Z" fill="#102B6B"/>
</g>
<defs>
<clipPath id="clip0_98_2779">
<rect width="76.2222" height="32" fill="white" transform="translate(0.388885 0.505493)"/>
</clipPath>
</defs>
</svg>
