<svg width="140" height="27" viewBox="0 0 140 27" fill="none" xmlns="http://www.w3.org/2000/svg">
<path d="M0.579612 14.8929C1.7422 11.9223 6.10191 9.63247 8.13643 8.85888C17.4372 5.14573 32.4054 3.28896 38.6544 4.21735C44.9033 5.14573 38.0731 7.00219 32.1148 8.85881C26.1565 10.7154 30.5162 11.6437 35.8932 10.7154C41.2702 9.78711 52.4601 8.85881 62.0514 8.39465C71.6428 7.9305 61.9061 7.00219 52.4601 7.00219C43.0141 7.00219 43.1594 5.14565 46.5018 4.21735C49.8443 3.28904 57.4011 -0.424189 66.2658 0.0399648C75.1306 0.504118 96.0571 1.43243 105.067 4.6815C114.077 7.93058 132.679 16.7495 137.184 19.5344C141.689 22.3193 141.107 30.2099 133.115 25.5684C125.122 20.9269 108.555 12.5721 72.2241 11.1797C35.8932 9.78719 8.28174 17.6778 5.37527 20.9269C2.4688 24.176 0.434268 24.176 1.59686 21.391C2.75944 18.6061 3.05011 18.142 1.88752 19.0703C0.724936 19.9986 -0.873623 18.6061 0.579612 14.8929Z" fill="#F79E0E"/>
</svg>
