<svg width="33" height="33" viewBox="0 0 33 33" fill="none" xmlns="http://www.w3.org/2000/svg">
<path d="M16.5002 0.505493C7.675 0.505993 0.501563 7.68056 0.5 16.5052C0.501563 25.3294 7.675 32.5039 16.5002 32.5055C25.3244 32.5039 32.499 25.3294 32.5 16.5052C32.499 7.68056 25.3244 0.505993 16.5002 0.505493ZM26.7959 26.8005C24.1549 29.4406 20.5174 31.0726 16.5002 31.0731C12.4825 31.0726 8.84456 29.4406 6.2045 26.8005C3.5645 24.1604 1.93294 20.522 1.93237 16.5052C1.93287 12.488 3.5645 8.85056 6.2045 6.20956C8.84456 3.57049 12.4825 1.93843 16.5002 1.93787C20.5175 1.93837 24.1549 3.57049 26.7959 6.20949C29.4349 8.85049 31.0671 12.4874 31.0676 16.5052C31.0671 20.522 29.435 24.1604 26.7959 26.8005Z" fill="#102B6B"/>
<path d="M5.00188 11.3716H4.91157C4.21526 12.9415 3.82594 14.677 3.82594 16.5052C3.82594 21.4938 6.70776 25.8065 10.8971 27.8751L5.00244 11.3716H5.00188Z" fill="#102B6B"/>
<path d="M23.698 11.905C22.6052 10.3767 22.7673 7.25262 24.7767 6.91037C22.5556 4.99337 19.6642 3.83087 16.5004 3.83087C12.007 3.83087 8.06253 6.17037 5.81184 9.69693H10.4512V11.3716H8.58128L12.9106 23.4896L15.9475 15.3718L14.5176 11.3716H12.3547V9.69687H20.1187V11.3716H18.0963L22.4623 23.5949L24.6748 17.6841C25.0672 16.0909 24.8378 13.5034 23.698 11.905Z" fill="#102B6B"/>
<path d="M28.2821 11.8353C28.2771 11.8834 28.2721 11.9321 28.2651 11.9793C27.9585 14.0368 26.0529 18.5497 26.0529 18.5497L23.294 25.9245L22.6784 27.5711C26.5537 25.4032 29.1746 21.262 29.1746 16.5052C29.1747 14.8551 28.8561 13.2807 28.2821 11.8353Z" fill="#102B6B"/>
<path d="M13.7413 25.8157L12.6997 28.5992C13.8999 28.9765 15.1757 29.1797 16.5002 29.1797C17.9477 29.1797 19.337 28.9344 20.6329 28.4868L16.7782 17.6959L13.7413 25.8157Z" fill="#102B6B"/>
</svg>
