<svg width="25" height="25" viewBox="0 0 25 25" fill="none" xmlns="http://www.w3.org/2000/svg">
<g clip-path="url(#clip0_122_1938)">
<path d="M12.5002 0.5C5.88125 0.500375 0.501172 5.8813 0.5 12.4998C0.501172 19.118 5.88125 24.4988 12.5002 24.5C19.1183 24.4988 24.4992 19.118 24.5 12.4998C24.4992 5.8813 19.1183 0.500375 12.5002 0.5ZM20.222 20.2213C18.2412 22.2013 15.5131 23.4253 12.5002 23.4257C9.48688 23.4253 6.75842 22.2013 4.77838 20.2213C2.79838 18.2412 1.5747 15.5124 1.57428 12.4998C1.57466 9.48688 2.79838 6.7588 4.77838 4.77805C6.75842 2.79875 9.48688 1.5747 12.5002 1.57428C15.5131 1.57466 18.2412 2.79875 20.222 4.778C22.2012 6.75875 23.4253 9.48645 23.4257 12.4998C23.4253 15.5124 22.2012 18.2412 20.222 20.2213Z" fill="white"/>
<path d="M3.87634 8.64966H3.8086C3.28637 9.82706 2.99438 11.1286 2.99438 12.4998C2.99438 16.2413 5.15574 19.4758 8.29773 21.0272L3.87676 8.64966H3.87634Z" fill="white"/>
<path d="M17.8985 9.04961C17.0789 7.90343 17.2005 5.56033 18.7075 5.30364C17.0417 3.86589 14.8732 2.99402 12.5003 2.99402C9.13028 2.99402 6.1719 4.74864 4.48389 7.39357H7.96342V8.64958H6.56096L9.80795 17.738L12.0856 11.6497L11.0132 8.64953H9.391V7.39352H15.214V8.64953H13.6973L16.9717 17.817L18.6311 13.384C18.9254 12.189 18.7534 10.2484 17.8985 9.04961Z" fill="white"/>
<path d="M21.3366 8.99738C21.3328 9.03347 21.3291 9.06998 21.3238 9.10538C21.0938 10.6485 19.6647 14.0332 19.6647 14.0332L17.5955 19.5643L17.1338 20.7992C20.0402 19.1733 22.0059 16.0674 22.0059 12.4998C22.006 11.2622 21.767 10.0815 21.3366 8.99738Z" fill="white"/>
<path d="M10.4311 19.4826L9.6499 21.5702C10.55 21.8532 11.5069 22.0056 12.5003 22.0056C13.5859 22.0056 14.6278 21.8216 15.5997 21.4859L12.7087 13.3928L10.4311 19.4826Z" fill="white"/>
</g>
<defs>
<clipPath id="clip0_122_1938">
<rect width="24" height="24" fill="white" transform="translate(0.5 0.5)"/>
</clipPath>
</defs>
</svg>
